<?xml version="1.0" encoding="UTF-8"?><svg id="_图层_1" xmlns="http://www.w3.org/2000/svg" width="160" height="46" xmlns:xlink="http://www.w3.org/1999/xlink" viewBox="0 0 160 46"><defs><style>.cls-1{fill:#e8f4f7;}.cls-2{fill:url(#_未命名的渐变);}.cls-3{fill:#cf7644;}.cls-4{fill:#1ca696;}</style><linearGradient id="_未命名的渐变" x1=".2" y1="824.18" x2="33.55" y2="824.18" gradientTransform="translate(0 -796)" gradientUnits="userSpaceOnUse"><stop offset="0" stop-color="#0f3561"/><stop offset=".18" stop-color="#0f3760"/><stop offset=".48" stop-color="#0f3760"/><stop offset=".52" stop-color="#1f71b0"/></linearGradient></defs><g><path d="M42.9,24.5c0-.9,.2-1.8,.7-2.7s1.1-1.5,1.9-2c.8-.5,1.8-.7,2.8-.7,1.6,0,2.9,.5,4,1.6,1,1,1.5,2.3,1.5,4,0,1.6-.5,2.9-1.5,4.1-1,1-2.3,1.6-4,1.6-1,0-1.9-.2-2.8-.7s-1.5-1.1-2-1.9c-.4-1.1-.6-2.1-.6-3.3Zm2.9,.1c0,1,.2,1.8,.7,2.4s1.1,.8,1.8,.8,1.3-.3,1.8-.8c.5-.6,.7-1.4,.7-2.4s-.2-1.8-.7-2.4-1.1-.8-1.8-.8-1.3,.3-1.8,.8c-.5,.6-.7,1.4-.7,2.4Z"/><path d="M59,30l-4.3-10.6h2.9l2,5.5,.6,1.8c.2-.5,.2-.8,.3-.9,.1-.3,.2-.6,.3-.9l2-5.5h2.9l-4.1,10.6h-2.6Z"/><path d="M76.9,24.5l2.8,.9c-.4,1.6-1.2,2.8-2.2,3.5-1,.8-2.3,1.2-4,1.2-1.9,0-3.5-.7-4.9-2-1.2-1.3-1.9-3.1-1.9-5.5s.6-4.4,1.9-5.7c1.2-1.3,2.9-2,5-2,1.8,0,3.2,.5,4.4,1.6,.7,.6,1.2,1.5,1.5,2.7l-2.7,.7c-.2-.8-.5-1.3-1.1-1.8-.5-.4-1.2-.7-2-.7-1.1,0-2,.4-2.6,1.2-.7,.8-1,2-1,3.8s.3,3.1,1,4c.7,.8,1.5,1.2,2.6,1.2,.8,0,1.4-.2,2-.7,.6-.5,1-1.3,1.2-2.4Z"/><path d="M81.7,24.5c0-.9,.2-1.8,.7-2.7s1.1-1.5,1.9-2,1.8-.7,2.8-.7c1.6,0,2.9,.5,4,1.6,1,1.1,1.5,2.3,1.5,4,0,1.6-.5,2.9-1.5,4.1-1,1-2.3,1.6-4,1.6-1,0-1.9-.2-2.8-.7-.9-.4-1.5-1.1-2-1.9-.3-1.1-.6-2.1-.6-3.3Zm2.9,.1c0,1,.2,1.8,.7,2.4s1.1,.8,1.8,.8,1.3-.3,1.8-.8c.5-.6,.7-1.4,.7-2.4s-.2-1.8-.7-2.4-1.1-.8-1.8-.8-1.3,.3-1.8,.8c-.5,.6-.7,1.4-.7,2.4Z"/><path d="M94.7,19.3h2.6v1.4c.9-1.1,2-1.7,3.3-1.7,.7,0,1.3,.1,1.8,.4s.9,.7,1.2,1.3c.5-.6,1-1,1.5-1.3s1.1-.4,1.7-.4c.8,0,1.4,.2,2,.5,.5,.3,.9,.8,1.2,1.4,.2,.4,.3,1.2,.3,2.2v6.9h-2.8v-6.1c0-1-.1-1.7-.3-2-.3-.4-.7-.6-1.2-.6-.4,0-.8,.1-1.1,.4-.3,.2-.6,.6-.7,1-.2,.5-.2,1.2-.2,2.2v5.2h-2.8v-6c0-1-.1-1.7-.1-2-.1-.3-.3-.5-.5-.7-.2-.1-.5-.2-.8-.2-.4,0-.8,.1-1.2,.3-.3,.2-.6,.6-.7,1s-.2,1.2-.2,2.2v5.2h-2.8v-10.6h-.2Z"/><path d="M113.1,19.3h2.6v1.5c.3-.5,.8-1,1.4-1.3s1.2-.5,1.9-.5c1.2,0,2.3,.5,3.1,1.4,.9,1,1.3,2.3,1.3,4.1s-.4,3.1-1.3,4.2c-.9,1-1.9,1.5-3.1,1.5-.6,0-1.1-.1-1.6-.3s-1-.6-1.5-1.2v5.3h-2.8v-14.7Zm2.8,5.1c0,1.2,.2,2.1,.7,2.6,.5,.6,1,.8,1.7,.8,.6,0,1.2-.3,1.6-.8s.6-1.4,.6-2.6c0-1.1-.2-1.9-.7-2.5-.4-.5-1-.8-1.6-.8-.7,0-1.2,.3-1.7,.8-.4,.7-.6,1.5-.6,2.5Z"/><path d="M125.1,24.5c0-.9,.2-1.8,.7-2.7s1.1-1.5,1.9-2,1.8-.7,2.8-.7c1.6,0,2.9,.5,4,1.6,1,1,1.5,2.3,1.5,4,0,1.6-.5,2.9-1.5,4.1-1,1-2.3,1.6-4,1.6-1,0-1.9-.2-2.8-.7-.9-.4-1.5-1.1-2-1.9-.4-1.1-.6-2.1-.6-3.3Zm2.9,.1c0,1,.2,1.8,.7,2.4s1.1,.8,1.8,.8,1.3-.3,1.8-.8c.5-.6,.7-1.4,.7-2.4s-.2-1.8-.7-2.4-1.1-.8-1.8-.8-1.3,.3-1.8,.8c-.4,.6-.7,1.4-.7,2.4Z"/><path d="M137.3,26.9l2.8-.4c.1,.5,.4,1,.7,1.2,.4,.3,.9,.4,1.5,.4,.7,0,1.3-.1,1.6-.4,.2-.2,.4-.4,.4-.7,0-.2-.1-.4-.2-.5-.1-.1-.4-.3-.9-.4-2.2-.5-3.7-.9-4.4-1.4-.8-.6-1.2-1.4-1.2-2.4,0-.9,.4-1.7,1.1-2.3,.7-.6,1.8-.9,3.3-.9,1.4,0,2.5,.2,3.2,.7s1.2,1.2,1.4,2.1l-2.6,.5c-.1-.4-.3-.7-.6-.9-.3-.2-.7-.4-1.3-.4-.7,0-1.3,.1-1.6,.3-.2,.1-.3,.3-.3,.6,0,.2,.1,.4,.3,.5,.3,.2,1.1,.4,2.6,.8,1.5,.3,2.5,.8,3.1,1.2,.6,.5,.9,1.2,.9,2.1,0,1-.4,1.8-1.2,2.5s-2,1-3.6,1c-1.4,0-2.6-.3-3.4-.9-.8-.4-1.3-1.2-1.6-2.3Z"/><path d="M155.9,26.5l2.8,.5c-.4,1-.9,1.8-1.7,2.3s-1.7,.8-2.9,.8c-1.8,0-3.2-.6-4.2-1.8-.7-1-1-2.2-1-3.6,0-1.7,.5-3.1,1.4-4.2,.9-1,2.1-1.5,3.5-1.5,1.6,0,2.8,.5,3.7,1.6,.9,1,1.3,2.6,1.3,4.9h-7.1c0,.8,.2,1.5,.7,1.9,.4,.5,1,.7,1.6,.7,.4,0,.8-.1,1.1-.4,.4-.3,.6-.6,.8-1.2Zm.1-2.8c0-.8-.2-1.4-.6-1.8-.4-.4-.9-.6-1.4-.6-.6,0-1.1,.2-1.5,.7-.4,.4-.6,1-.6,1.8h4.2v-.1h-.1Z"/></g><g><path class="cls-2" d="M16.9,24.9L.2,14.2V31.1c0,.8,.4,1.5,1.1,1.9l13.9,8.7c1,.6,2.2,.6,3.2,0l13.9-8.7c.7-.4,1.1-1.1,1.1-1.9V14.2l-16.5,10.7Z"/><path class="cls-4" d="M33.1,13.3L18.7,4.4c-1.1-.7-2.4-.7-3.5,0L.7,13.3c-.6,.4-.6,1.3,0,1.6l14.5,8.8c1.1,.7,2.4,.7,3.5,0l14.4-8.7c.6-.4,.6-1.3,0-1.7Z"/><g><path class="cls-3" d="M25.1,17.6l-7.2-4.2c-.6-.4-1.4-.4-2,0l-7.2,4.2c-.6,.4-1,1-1,1.8v8.3c0,.7,.4,1.4,1,1.8l7.2,4.2c.6,.4,1.4,.4,2,0l7.2-4.2c.6-.4,1-1,1-1.8v-8.3c.1-.8-.3-1.5-1-1.8Z"/><path class="cls-1" d="M21.1,22.7l-6.1-3.9c-.8-.5-1.8,.1-1.8,1v7.8c0,.9,1,1.5,1.8,1l6.1-3.8c.7-.6,.7-1.6,0-2.1Z"/></g></g></svg>